Coordinates
version=1
nRows=4
nColumns=63
inDegrees=yes

Units are S.I. units (second, meters, Newtons, ...)
If the header above contains a line with 'inDegrees', this indicates whether rotational values are in degrees (yes) or radians (no).

endheader
time	pelvis_tilt	pelvis_list	pelvis_rotation	pelvis_tx	pelvis_ty	pelvis_tz	hip_flexion_r	hip_adduction_r	hip_rotation_r	knee_angle_r	knee_angle_r_beta	ankle_angle_r	subtalar_angle_r	mtp_angle_r	hip_flexion_l	hip_adduction_l	hip_rotation_l	knee_angle_l	knee_angle_l_beta	ankle_angle_l	subtalar_angle_l	mtp_angle_l	L5_S1_Flex_Ext	L5_S1_Lat_Bending	L5_S1_axial_rotation	L4_L5_Flex_Ext	L4_L5_Lat_Bending	L4_L5_axial_rotation	L3_L4_Flex_Ext	L3_L4_Lat_Bending	L3_L4_axial_rotation	L2_L3_Flex_Ext	L2_L3_Lat_Bending	L2_L3_axial_rotation	L1_L2_Flex_Ext	L1_L2_Lat_Bending	L1_L2_axial_rotation	L1_T12_Flex_Ext	L1_T12_Lat_Bending	L1_T12_axial_rotation	Abs_r3	Abs_r2	Abs_r1	Abs_t1	Abs_t2	neck_flexion	neck_bending	neck_rotation	arm_flex_r	arm_add_r	arm_rot_r	elbow_flex_r	pro_sup_r	wrist_flex_r	wrist_dev_r	arm_flex_l	arm_add_l	arm_rot_l	elbow_flex_l	pro_sup_l	wrist_flex_l	wrist_dev_l
      3.23728814	     -1.33371556	     -8.30496882	     98.21157649	      0.26991067	      1.05034088	      0.45200590	      0.98187524	     -1.79086568	      0.34092032	     12.06793907	      0.21062527	     33.41275631	     -8.23804904	      0.00000000	      4.42166643	     -0.58570048	      1.45157880	     16.45227035	      0.28714629	     37.00774220	      9.64040964	      0.00000000	     -0.18971888	     -0.31652450	     -3.82840032	     -0.35232693	     -0.42097758	     -4.06767534	     -0.31168915	     -0.76959766	     -4.06767534	     -0.21682971	     -0.76959766	     -3.34985028	     -0.17617295	     -0.64545675	     -3.11057526	     -0.10840537	     -0.49029644	     -2.87130024	     -1.35514299	     -3.58058839	    -21.29241404	      0.00000000	      0.00000000	      5.06287348	     -9.40891714	     11.45669155	     57.81179630	     -7.07891033	     35.50595378	     82.61080089	     81.85855435	     -0.88329320	     20.31884942	     24.49524794	    -23.48149789	     -7.05227720	    106.58394056	     88.31979354	    -12.50026543	     11.69030198
      3.25423729	     -1.52989241	     -7.83440161	     98.53213931	      0.27003522	      1.05104796	      0.45224178	      0.38138827	     -1.88940970	      0.16201574	     11.83621139	      0.20658086	     33.41480003	     -8.35801156	      0.00000000	      3.79018526	     -0.49860835	      1.60036396	     16.22464503	      0.28317348	     36.64542297	      9.67465590	      0.00000000	     -0.21486955	     -0.34977212	     -3.58999650	     -0.39903424	     -0.46519692	     -3.81437128	     -0.35300919	     -0.85043594	     -3.81437128	     -0.24557441	     -0.85043594	     -3.14124694	     -0.19952787	     -0.71325531	     -2.91687215	     -0.12277646	     -0.54179702	     -2.69249737	     -1.53479172	     -3.95669219	    -19.96648352	      0.00000000	      0.00000000	      6.79563134	    -11.65442841	     10.32164436	     61.01022483	     -9.04676193	     37.43833790	     81.76390485	     81.78919716	      2.66593668	     19.54242259	     26.25659907	    -23.02455767	     -4.73408495	    106.32072965	     88.73408822	    -11.10876864	      8.78006317
      3.27118644	     -1.72128342	     -7.46631918	     98.64070318	      0.27032729	      1.05147862	      0.45250770	     -0.06470654	     -2.00410524	      0.13913327	     11.70613648	      0.20431062	     33.41423458	     -8.49368774	      0.00000000	      3.23245936	     -0.38385776	      1.74596388	     15.96382860	      0.27862137	     36.28765576	      9.51765679	      0.00000000	     -0.22992227	     -0.38351133	     -3.23193778	     -0.42698865	     -0.51007006	     -3.43393389	     -0.37773930	     -0.93246944	     -3.43393389	     -0.26277816	     -0.93246944	     -2.82794556	     -0.21350582	     -0.78205630	     -2.62594944	     -0.13137759	     -0.59405904	     -2.42395333	     -1.64231179	     -4.33835683	    -17.97506834	      0.00000000	      0.00000000	      8.55200610	    -13.86113724	      9.08677273	     64.19081844	    -11.40891883	     38.82292031	     80.82961827	     83.97352296	      6.17855872	     17.65070299	     28.31252027	    -22.10136605	     -2.10764841	    106.04623669	     89.07313898	     -9.41598740	      7.07463825
      3.28813559	     -1.87166769	     -7.06340173	     98.74556960	      0.27043796	      1.05168490	      0.45256720	     -0.57153730	     -2.06706728	      0.12619171	     11.60905053	      0.20261615	     33.39001073	     -8.82396785	      0.00000000	      2.63905166	     -0.29937736	      1.90493707	     15.70399153	      0.27408636	     36.06150572	      9.35212952	      0.00000000	     -0.25956824	     -0.41055362	     -2.90332500	     -0.48204417	     -0.54603631	     -3.08478281	     -0.42644465	     -0.99822007	     -3.08478281	     -0.29666054	     -0.99822007	     -2.54040938	     -0.24103506	     -0.83720094	     -2.35895156	     -0.14831729	     -0.63594756	     -2.17749375	     -1.85406995	     -4.64426464	    -16.14742266	      0.00000000	      0.00000000	     10.29077434	    -15.91019308	      8.15729833	     67.47685989	    -13.75938770	     40.26996484	     79.92387628	     87.30119172	      8.71066629	     14.98634898	     30.37689283	    -21.19586097	      0.30529072	    106.15773028	     89.30462712	     -8.07177405	      7.18929650
